<?xml version="1.0" encoding="UTF-8" standalone="no"?>
<!-- Created with Inkscape (http://www.inkscape.org/) -->

<svg
   width="400mm"
   height="90mm"
   viewBox="0 0 400 90"
   version="1.1"
   id="svg5"
   xml:space="preserve"
   inkscape:export-filename="logo_shortair.svg"
   inkscape:export-xdpi="96"
   inkscape:export-ydpi="96"
   inkscape:version="1.2.2 (732a01da63, 2022-12-09)"
   sodipodi:docname="rysunek.svg"
   xmlns:inkscape="http://www.inkscape.org/namespaces/inkscape"
   xmlns:sodipodi="http://sodipodi.sourceforge.net/DTD/sodipodi-0.dtd"
   xmlns="http://www.w3.org/2000/svg"
   xmlns:svg="http://www.w3.org/2000/svg"><sodipodi:namedview
     id="namedview7"
     pagecolor="#505050"
     bordercolor="#ffffff"
     borderopacity="1"
     inkscape:showpageshadow="0"
     inkscape:pageopacity="0"
     inkscape:pagecheckerboard="1"
     inkscape:deskcolor="#505050"
     inkscape:document-units="mm"
     showgrid="false"
     showguides="true"
     inkscape:zoom="0.22627417"
     inkscape:cx="207.71262"
     inkscape:cy="6293.2504"
     inkscape:window-width="1379"
     inkscape:window-height="1205"
     inkscape:window-x="2723"
     inkscape:window-y="101"
     inkscape:window-maximized="0"
     inkscape:current-layer="svg5"
     inkscape:lockguides="false"><sodipodi:guide
       position="-432.09178,943.85307"
       orientation="0,-1"
       id="guide17446"
       inkscape:locked="false" /><sodipodi:guide
       position="-168.41573,45.048243"
       orientation="0,-1"
       id="guide1547"
       inkscape:locked="false" /></sodipodi:namedview><defs
     id="defs2"><rect
       x="-1302"
       y="2388"
       width="646"
       height="540"
       id="rect17434-0" /></defs><g
     aria-label="AIR"
     id="text17440-0-3-2"
     style="font-weight:bold;font-size:59.6402px;font-family:'gg sans';-inkscape-font-specification:'gg sans, Bold';display:inline;fill:#16dbff;stroke-width:6.50226;stroke-linejoin:round"
     inkscape:label="air"
     inkscape:export-filename=".\shotAirLogo.svg"
     inkscape:export-xdpi="96"
     inkscape:export-ydpi="96"
     transform="matrix(1.0257324,0,0,1.0257324,-79.458579,-1533.4583)"><path
       d="m 434.27052,1561.488 v -41.1517 h 18.60775 q 6.44114,0 9.90027,3.4591 3.51877,3.3995 3.51877,9.2443 0,4.4133 -2.0874,7.5743 -2.02777,3.1609 -5.60618,4.6519 5.60618,7.5147 8.82675,16.2221 h -9.60208 q -2.86273,-8.0514 -7.69358,-15.0293 h -7.15683 v 15.0293 z m 17.0571,-22.9018 q 2.98201,0 4.5923,-1.2524 1.66992,-1.3121 1.66992,-3.9363 0,-2.6242 -1.66992,-3.8766 -1.61029,-1.3121 -4.5923,-1.3121 h -8.34963 v 10.3774 z"
       id="path455"
       inkscape:label="r" /><path
       d="m 425.92094,1561.488 h -8.70747 v -41.1517 h 8.70747 z"
       id="path453"
       style="font-weight:bold;font-size:59.6402px;font-family:'gg sans';-inkscape-font-specification:'gg sans, Bold';display:inline;fill:#16dbff;stroke-width:6.50226;stroke-linejoin:round"
       inkscape:label="i" /><path
       d="m 412.50185,1561.488 h -9.42316 l -2.68381,-7.8725 h -16.46069 l -2.68381,7.8725 h -9.42315 l 15.56609,-41.1517 h 9.54243 z m -20.33731,-31.7882 -5.4869,16.0432 h 10.9738 z"
       id="path451"
       style="font-weight:bold;font-size:59.6402px;font-family:'gg sans';-inkscape-font-specification:'gg sans, Bold';display:inline;fill:#16dbff;stroke-width:6.50226;stroke-linejoin:round"
       inkscape:label="a" /></g><path
     style="display:inline;fill:#ff7f50;fill-opacity:1;stroke-width:0.555043"
     d="m 195.9058,89.213383 c -2.06849,-0.9233 -4.45761,-3.4293 -5.23764,-5.4937 -0.81951,-2.1689 -0.81951,-75.1874001 0,-77.3563001 0.80341,-2.1264 3.19859,-4.5921 5.35855,-5.51620003 2.63999,-1.1296 75.37929,-1.1296 78.01936,0 2.15996,0.92410003 4.55513,3.38980003 5.35848,5.51620003 0.39587,1.0475 0.59042,13.8702001 0.59042,38.9044001 v 37.3421 l -1.27817,2.4169 c -0.87354,1.6521 -2.04311,2.8216 -3.69505,3.6952 l -2.417,1.278 -37.51691,-0.021 c -30.10885,-0.014 -37.8457,-0.1682 -39.18204,-0.7649 z m 12.92294,-11.0081 -0.15673,-6.2442 h -4.44037 -4.4403 l -0.16011,5.5111 c -0.0878,3.031 -0.0337,5.8408 0.12093,6.2441 0.2013,0.5236 1.56002,0.7333 4.7574,0.7333 h 4.47589 z m 20.53661,0 -0.15671,-6.2442 h -4.44036 -4.44038 l -0.15672,6.2442 -0.15673,6.2443 h 4.75423 4.75423 z m 20.53664,0 -0.15672,-6.2442 h -4.44035 -4.44037 l -0.16012,5.5111 c -0.0885,3.031 -0.0337,5.8408 0.1216,6.2441 0.20131,0.5236 1.55996,0.7333 4.75733,0.7333 h 4.47597 z m 20.53665,0 -0.15673,-6.2442 h -4.44037 -4.44037 l -0.16009,5.5111 c -0.0878,3.031 -0.0337,5.8408 0.12092,6.2441 0.20064,0.5236 1.56002,0.7333 4.75733,0.7333 h 4.47596 z m -29.86734,-22.5503 c 7.47061,-4.9344 13.77776,-9.3197 14.01574,-9.7449 0.2378,-0.4256 0.2986,-1.1068 0.13444,-1.5147 -0.35803,-0.8905 -28.01604,-19.3354 -28.99333,-19.3354 -0.5276,0 -0.68277,4.5522 -0.68277,20.0462 0,18.822 0.0608,20.0303 0.97135,19.7834 0.53435,-0.1446 7.08367,-4.3002 14.55436,-9.2346 z m -31.89949,-43.6386 V 5.9109829 h -4.44037 -4.44037 l -0.16011,5.5109001 c -0.0878,3.031 -0.0271,5.8514 0.13038,6.2677 0.21887,0.5694 1.35757,0.7166 4.6004,0.5946 l 4.31007,-0.1623 z m 20.53657,0 V 5.9109829 h -4.44031 -4.44036 l -0.16011,5.5109001 c -0.0885,3.031 -0.0271,5.8514 0.13037,6.2677 0.21888,0.5694 1.35757,0.7166 4.60041,0.5946 l 4.31,-0.1623 z m 20.69382,-0.1614 0.15741,-6.2669001 -4.59751,0.1614 -4.59755,0.1615 -0.16012,5.5109001 c -0.0877,3.031 -0.0271,5.8515 0.13039,6.2677 0.21888,0.5695 1.35761,0.7166 4.60047,0.5946 l 4.30998,-0.1621 z m 20.53664,0 0.1574,-6.2669001 -4.59756,0.1614 -4.59751,0.1615 -0.15942,5.7826001 c -0.11687,4.2476 0.0337,5.906 0.5553,6.2482 0.39316,0.256 2.46259,0.4012 4.59952,0.3228 l 3.88534,-0.1424 z"
     id="path10850-39-5-0-8"
     inkscape:label="film" /><g
     aria-label="SH O T"
     transform="matrix(1.7646596,0,0,1.7646596,2296.2409,-4200.9722)"
     id="text17432-0-5-1"
     style="font-weight:bold;font-size:34.6667px;font-family:'gg sans';-inkscape-font-specification:'gg sans, Bold';white-space:pre;shape-inside:url(#rect17434-0);display:inline;fill:#16dbff;stroke-width:3.77953;stroke-linejoin:round"
     inkscape:label="shot"><path
       d="m -1214.2472,2418.7881 h -5.0614 v -19.344 h -6.9333 v -4.576 h 18.928 v 4.576 h -6.9333 z"
       style="display:inline"
       id="path18836-5-7"
       inkscape:label="t" /><rect
       style="font-weight:bold;font-size:34.6667px;font-family:'gg sans';-inkscape-font-specification:'gg sans, Bold';white-space:pre;shape-inside:url(#rect17434-0);display:inline;fill:#16dbff;fill-opacity:1;stroke:none;stroke-width:1.90975;stroke-linecap:butt;stroke-linejoin:round;stroke-dasharray:none;stroke-opacity:1;paint-order:normal"
       id="rect17559-5-06-5-9-1"
       width="12.422877"
       height="2.8574834"
       x="-839.79065"
       y="-2581.9326"
       transform="rotate(-135,7.5422368e-6,1.5244129e-5)"
       inkscape:label="dp" /><rect
       style="font-weight:bold;font-size:34.6667px;font-family:'gg sans';-inkscape-font-specification:'gg sans, Bold';white-space:pre;shape-inside:url(#rect17434-0);display:inline;fill:#16dbff;fill-opacity:1;stroke:none;stroke-width:1.90975;stroke-linecap:butt;stroke-linejoin:round;stroke-dasharray:none;stroke-opacity:1;paint-order:normal"
       id="rect17559-5-8-7-8-5"
       width="12.727664"
       height="2.8574834"
       x="-2597.1289"
       y="821.73688"
       transform="rotate(-45,4.2062629e-5,5.9487305e-6)"
       inkscape:label="dl" /><rect
       style="font-weight:bold;font-size:34.6667px;font-family:'gg sans';-inkscape-font-specification:'gg sans, Bold';white-space:pre;shape-inside:url(#rect17434-0);display:inline;fill:#16dbff;fill-opacity:1;stroke:none;stroke-width:1.90975;stroke-linecap:butt;stroke-linejoin:round;stroke-dasharray:none;stroke-opacity:1;paint-order:normal"
       id="rect17559-5-3-9-2-3"
       width="12.647763"
       height="2.8574834"
       x="-2576.5266"
       y="821.73688"
       transform="rotate(-45,4.2062629e-5,5.9487305e-6)"
       inkscape:label="gp" /><rect
       style="font-weight:bold;font-size:34.6667px;font-family:'gg sans';-inkscape-font-specification:'gg sans, Bold';white-space:pre;shape-inside:url(#rect17434-0);display:inline;fill:#16dbff;fill-opacity:1;stroke:none;stroke-width:1.90975;stroke-linecap:butt;stroke-linejoin:round;stroke-dasharray:none;stroke-opacity:1;paint-order:normal"
       id="rect17559-5-0-8-6-6"
       width="12.97711"
       height="2.8574834"
       x="-819.51379"
       y="-2581.9446"
       transform="rotate(-135,1.0577516e-5,1.4062201e-5)"
       inkscape:label="gl" /><path
       d="m -1242.3837,2419.2735 q -3.2587,0 -5.7547,-1.4907 -2.496,-1.4907 -3.8826,-4.2987 -1.3867,-2.8426 -1.3867,-6.656 0,-3.8133 1.3867,-6.6213 1.3866,-2.8427 3.8826,-4.3334 2.496,-1.4906 5.7547,-1.4906 3.2587,0 5.7547,1.4906 2.496,1.4907 3.8827,4.3334 1.3866,2.808 1.3866,6.6213 0,3.8134 -1.3866,6.656 -1.3867,2.808 -3.8827,4.2987 -2.496,1.4907 -5.7547,1.4907 z m 0,-4.576 q 2.912,0 4.4374,-2.0107 1.5253,-2.0453 1.5253,-5.8587 0,-3.8133 -1.5253,-5.824 -1.5254,-2.0453 -4.4374,-2.0453 -2.912,0 -4.4373,2.0453 -1.5254,2.0107 -1.5254,5.824 0,3.8134 1.5254,5.8587 1.5253,2.0107 4.4373,2.0107 z"
       style="font-weight:bold;font-size:34.6667px;font-family:'gg sans';-inkscape-font-specification:'gg sans, Bold';white-space:pre;shape-inside:url(#rect17434-0);display:inline;fill:#16dbff;stroke-width:3.77953;stroke-linejoin:round"
       id="path18834-1-1"
       transform="translate(2.0961766e-6,3.1356523e-5)"
       inkscape:label="o" /><path
       d="m -1274.1626,2418.7881 h -5.0614 v -23.92 h 5.0614 v 9.464 h 9.4293 v -9.464 h 5.0613 v 23.92 h -5.0613 v -9.88 h -9.4293 z"
       style="font-weight:bold;font-size:34.6667px;font-family:'gg sans';-inkscape-font-specification:'gg sans, Bold';white-space:pre;shape-inside:url(#rect17434-0);display:inline;fill:#16dbff;stroke-width:3.77953;stroke-linejoin:round"
       id="path18832-9-1"
       transform="translate(2.0961766e-6,3.1356523e-5)"
       inkscape:label="h" /><path
       d="m -1291.808,2419.2735 q -6.552,0 -9.4293,-4.7147 l 3.6746,-3.1547 q 1.144,1.8027 2.496,2.6694 1.352,0.832 3.224,0.832 1.872,0 2.912,-0.728 1.04,-0.728 1.04,-2.1494 0,-1.456 -1.2133,-2.184 -1.1787,-0.728 -3.8133,-1.248 -3.12,-0.624 -5.2347,-2.3226 -2.08,-1.6987 -2.08,-4.7494 0,-2.1493 1.1093,-3.7787 1.1094,-1.6293 3.0507,-2.496 1.976,-0.8666 4.472,-0.8666 3.0853,0 5.1307,1.248 2.0453,1.2133 3.3973,3.2933 l -3.5013,2.8427 q -1.0747,-1.6987 -2.2534,-2.4267 -1.1786,-0.728 -2.7733,-0.728 -1.8027,0 -2.7733,0.6933 -0.936,0.6934 -0.936,1.8721 0,0.936 0.5546,1.5253 0.5547,0.5547 1.5254,0.936 0.9706,0.3467 2.704,0.7627 2.4613,0.5893 4.056,1.3173 1.5946,0.728 2.5653,2.1147 1.0054,1.3866 1.0054,3.7093 0,3.744 -2.4267,5.7547 -2.4267,1.976 -6.4827,1.976 z"
       style="font-weight:bold;font-size:34.6667px;font-family:'gg sans';-inkscape-font-specification:'gg sans, Bold';white-space:pre;shape-inside:url(#rect17434-0);display:inline;fill:#16dbff;stroke-width:3.77953;stroke-linejoin:round"
       id="path18830-2-6"
       transform="translate(2.0961766e-6,3.1356523e-5)"
       inkscape:label="s" /></g></svg>
